<?xml version="1.0" encoding="iso-8859-1"?>
<!-- Uploaded to: SVG Repo, www.svgrepo.com, Generator: SVG Repo Mixer Tools -->
<svg version="1.1" id="Layer_1" xmlns="http://www.w3.org/2000/svg" xmlns:xlink="http://www.w3.org/1999/xlink" 
	 viewBox="0 0 480 480" xml:space="preserve">
<rect x="323.502" y="56" style="fill:#9365B3;" width="48" height="104"/>
<rect x="323.502" y="56" style="fill:#6E4C86;" width="16" height="104"/>
<path style="fill:#FCB23C;" d="M379.502,24v16c0,8.8-7.2,16-16,16h-32c-8.8,0-16-7.2-16-16V24c0-8.8,7.2-16,16-16h32
	C372.302,8,379.502,15.2,379.502,24z"/>
<path style="fill:#BD852D;" d="M331.502,40V24c0-8.8,7.2-16,16-16h-16c-8.8,0-16,7.2-16,16v16c0,8.8,7.2,16,16,16h16
	C338.702,56,331.502,48.8,331.502,40z"/>
<path style="fill:#9365B3;" d="M411.502,208v248c0,8.8-7.2,16-16,16h-96c-8.8,0-16-7.2-16-16V208c0-26.48,21.52-48,48-48h32
	C389.982,160,411.502,181.52,411.502,208z"/>
<path style="fill:#6E4C86;" d="M299.502,456V208c0-26.48,21.52-48,48-48h-16c-26.48,0-48,21.52-48,48v248c0,8.8,7.2,16,16,16h16
	C306.702,472,299.502,464.8,299.502,456z"/>
<path style="fill:#FCB23C;" d="M411.502,272v96h-31.76c-1.28,16.48-14.96,29.52-31.76,29.52c-16.8,0-30.4-13.04-31.76-29.52h-32.72
	v-96h32.72c0-0.8-0.24-1.68-0.24-2.48c0-17.68,14.32-32,32-32s32,14.32,32,32c0,0.8-0.16,1.68-0.24,2.48H411.502z"/>
<rect x="283.502" y="272" style="fill:#BD852D;" width="16" height="96"/>
<g>
	<path style="fill:#132C47;" d="M379.502,154.36v-96.6c4.872-4.4,8-10.696,8-17.76V24c0-13.232-10.768-24-24-24h-32
		c-13.232,0-24,10.768-24,24v16c0,7.064,3.128,13.36,8,17.76v96.6c-23.096,6.904-40,28.328-40,53.64v248c0,13.232,10.768,24,24,24
		h96c13.232,0,24-10.768,24-24V208C419.502,182.68,402.606,161.264,379.502,154.36z M323.502,24c0-4.408,3.584-8,8-8h32
		c4.416,0,8,3.592,8,8v16c0,4.408-3.584,8-8,8h-32c-4.416,0-8-3.592-8-8V24z M331.502,64h32v88h-32V64z M331.502,168h32
		c22.056,0,40,17.944,40,40v56h-15.904c-2.696-19.456-19.44-34.48-39.616-34.48s-36.92,15.024-39.616,34.48h-16.864v-56
		C291.502,185.944,309.446,168,331.502,168z M403.502,360h-23.76c-4.176,0-7.648,3.216-7.976,7.376
		c-0.96,12.416-11.416,22.144-23.792,22.144c-12.512,0-22.744-9.536-23.784-22.176c-0.336-4.152-3.808-7.344-7.968-7.344h-24.72v-80
		h24.72c4.424,0,8-3.584,8-8c0-0.768-0.088-1.576-0.24-2.48c0-13.232,10.768-24,24-24s24,10.768,23.912,24.704
		c-0.008,0.072-0.104,0.928-0.112,1c-0.216,2.248,0.512,4.48,2.04,6.152c1.512,1.672,3.664,2.624,5.92,2.624h23.76V360z
		 M395.502,464h-96c-4.416,0-8-3.592-8-8v-80h18.016c4.632,17.256,20.064,29.52,38.464,29.52c18.144,0,33.808-12.48,38.464-29.52
		h17.056v80C403.502,460.408,399.918,464,395.502,464z"/>
	<circle style="fill:#132C47;" cx="355.902" cy="327.752" r="7.624"/>
	<circle style="fill:#132C47;" cx="331.502" cy="311.624" r="7.624"/>
	<circle style="fill:#132C47;" cx="339.126" cy="327.752" r="7.624"/>
	<circle style="fill:#132C47;" cx="347.502" cy="311.624" r="7.624"/>
	<circle style="fill:#132C47;" cx="363.502" cy="311.624" r="7.624"/>
	<circle style="fill:#132C47;" cx="347.502" cy="343.872" r="7.624"/>
	<path style="fill:#132C47;" d="M347.47,285.312c-1.824,3.152-1.6,6.792-0.032,9.8c3.384-0.136,6.648-1.768,8.472-4.92
		c1.824-3.152,1.6-6.8,0.032-9.8C352.55,280.528,349.286,282.16,347.47,285.312z"/>
</g>
<path style="fill:#FCB23C;" d="M371.502,160v8c0,13.28-10.72,24-24,24s-24-10.72-24-24v-8H371.502z"/>
<path style="fill:#FDC163;" d="M339.502,168v-8h-16v8c0,13.28,10.72,24,24,24c2.824,0,5.488-0.576,8-1.464
	C346.19,187.24,339.502,178.456,339.502,168z"/>
<path style="fill:#132C47;" d="M347.502,200c-17.648,0-32-14.352-32-32v-8c0-4.416,3.576-8,8-8h48c4.424,0,8,3.584,8,8v8
	C379.502,185.648,365.15,200,347.502,200z M331.502,168c0,8.824,7.176,16,16,16s16-7.176,16-16H331.502z"/>
<path style="fill:#F9FDFE;" d="M221.022,208.88c-3.12-0.56-6.24-0.88-9.52-0.88c-23.76,0-44.08,14.72-52.4,35.52
	c-12.08-20.08-34-33.52-59.12-33.52c-9.92,0-19.28,2.16-27.84,5.92c2.88-14.32,6.88-28.8,11.76-39.92h127.6
	C215.342,185.28,218.542,196.88,221.022,208.88z"/>
<path style="fill:#E7EDEF;" d="M103.262,176h-19.36c-4.88,11.12-8.88,25.6-11.76,39.92c6.44-2.832,13.336-4.752,20.584-5.528
	C95.478,197.936,99.014,185.688,103.262,176z"/>
<path style="fill:#F85766;" d="M221.022,208.88c3.92,18.96,6.16,38.72,6.16,51.28c0,49.76-35.92,89.2-80.16,89.2
	s-80.08-39.76-80.08-89.52c0-10.96,1.84-27.36,5.2-43.92c8.56-3.76,17.92-5.92,27.84-5.92c25.12,0,47.04,13.44,59.12,33.52
	c8.32-20.8,28.64-35.52,52.4-35.52C214.782,208,217.902,208.32,221.022,208.88z"/>
<path style="fill:#BA414D;" d="M83.262,259.84c0-10.96,1.84-27.36,5.2-43.92c6.152-2.704,12.736-4.536,19.624-5.376
	c-2.664-0.312-5.352-0.544-8.104-0.544c-9.92,0-19.28,2.16-27.84,5.92c-3.36,16.56-5.2,32.96-5.2,43.92
	c0,49.76,35.84,89.52,80.08,89.52c2.768,0,5.496-0.152,8.192-0.456C114.79,344.384,83.262,306.512,83.262,259.84z"/>
<path style="fill:#132C47;" d="M235.182,260.16c0-13.736-2.424-34.008-6.32-52.896v-0.008c-2.824-13.608-6.168-25.152-9.968-34.32
	c-1.232-2.984-4.16-4.936-7.392-4.936h-127.6c-3.176,0-4.456,1.88-5.728,4.792c-5.968,13.616-10.672,30.096-10.672,41.528v0.008
	c-8,16.552-6.96,33.56-6.96,45.504c0,50.96,33.904,92.848,78.96,97.096V464h-24c-4.424,0-8,3.584-8,8s3.576,8,8,8h64
	c4.424,0,8-3.584,8-8s-3.576-8-8-8h-24V356.888C200.15,352.168,235.182,310.6,235.182,260.16z M89.27,184h116.744
	c1.688,4.712,3.296,10.104,4.784,16c-1.32,0.016-2.6,0.192-3.904,0.28c-1.264,0.088-2.536,0.112-3.784,0.272
	c-1.368,0.176-2.688,0.496-4.032,0.76c-1.248,0.24-2.52,0.424-3.744,0.736c-1.304,0.336-2.552,0.808-3.832,1.224
	c-1.208,0.392-2.44,0.72-3.616,1.184c-1.264,0.496-2.456,1.12-3.688,1.696c-1.12,0.52-2.272,0.984-3.352,1.568
	c-1.248,0.672-2.416,1.48-3.624,2.232c-0.984,0.616-2,1.168-2.952,1.84c-1.256,0.888-2.408,1.904-3.6,2.88
	c-0.808,0.664-1.664,1.264-2.44,1.968c-1.32,1.2-2.52,2.52-3.736,3.824c-0.552,0.592-1.168,1.128-1.696,1.744
	c-1.704,1.976-3.296,4.064-4.768,6.256C143.534,211.696,122.638,202,99.966,202c-2.76,0-5.504,0.16-8.232,0.464
	c-0.92,0.104-1.832,0.304-2.744,0.432c-1.8,0.264-3.592,0.52-5.368,0.912c-0.184,0.04-0.368,0.056-0.552,0.096
	C84.982,196.504,87.07,189.744,89.27,184z M74.942,259.84c0-9.776,1.592-24.032,4.216-38.04c0.416-0.152,0.824-0.328,1.248-0.472
	c0.728-0.248,1.464-0.48,2.2-0.696c1.192-0.36,2.384-0.68,3.592-0.96c0.72-0.168,1.44-0.344,2.168-0.488
	c1.296-0.256,2.608-0.456,3.92-0.624c0.624-0.08,1.248-0.192,1.88-0.248c1.936-0.192,3.88-0.304,5.832-0.304
	c21.56,0,41.104,11.08,52.272,29.648c0.376,0.624,0.832,1.184,1.352,1.672c0.224,0.216,0.496,0.368,0.752,0.56
	c0.304,0.232,0.6,0.48,0.936,0.664c0.344,0.184,0.712,0.304,1.072,0.44c0.288,0.104,0.568,0.232,0.872,0.304
	c0.36,0.088,0.72,0.104,1.096,0.144c0.264,0.024,0.512,0.104,0.776,0.104c0.208,0,0.432-0.008,0.64-0.024
	c3.032-0.24,5.656-2.176,6.792-5c0.936-2.344,2.048-4.576,3.296-6.704c1.056-1.792,2.256-3.472,3.52-5.096
	c0.2-0.264,0.36-0.552,0.568-0.816c7.384-9.136,17.88-15.256,29.616-17.192c0.32-0.048,0.64-0.12,0.96-0.168
	c1.664-0.24,3.36-0.312,5.064-0.376c1.04-0.032,2.08-0.072,3.144-0.032c0.528,0.016,1.088,0.112,1.624,0.152
	c2.992,15.992,4.864,32.712,4.864,43.896c0,44.776-32.368,81.2-72.16,81.2C107.278,341.36,74.942,304.792,74.942,259.84z"/>
<g>
	<circle style="fill:#FEDDE0;" cx="107.166" cy="255.664" r="8"/>
	<circle style="fill:#FEDDE0;" cx="139.166" cy="303.664" r="8"/>
	<circle style="fill:#FEDDE0;" cx="189.182" cy="271.664" r="8"/>
</g>
</svg>